<svg width="229" height="60" fill="none" xmlns="http://www.w3.org/2000/svg"><path d="M23.902 58H.185V.025H34.67c3.213 0 6.149.577 8.81 1.732 2.71 1.154 4.868 3.012 6.474 5.572 1.607 2.56 2.41 5.973 2.41 10.24 0 1.204-.1 2.509-.301 3.914-.151 1.406-.527 2.811-1.13 4.217-.602 1.355-1.53 2.585-2.786 3.69-1.204 1.053-2.86 1.881-4.969 2.484L55.073 58H28.646L24.58 42.49h-.678V58Zm5.195-39.453H21.87v4.066h7.454c.402 0 .829-.126 1.28-.377.502-.25.753-.778.753-1.58 0-.854-.276-1.406-.828-1.657-.552-.301-1.029-.452-1.43-.452Z" fill="#FF9000"/><path d="M76.074 46.556v6.023c0 1.907-.778 3.539-2.334 4.894s-4.04 2.033-7.454 2.033c-3.363 0-5.847-.703-7.453-2.108-1.607-1.406-2.41-3.062-2.41-4.97V46.48c0-1.907.803-3.563 2.41-4.969 1.606-1.405 4.09-2.108 7.453-2.108 3.414 0 5.898.678 7.454 2.033s2.334 3.062 2.334 5.12Zm93.895 0v6.023c0 1.907-.778 3.539-2.334 4.894s-4.041 2.033-7.454 2.033c-3.363 0-5.848-.703-7.454-2.108-1.606-1.406-2.41-3.062-2.41-4.97V46.48c0-1.907.804-3.563 2.41-4.969 1.606-1.405 4.091-2.108 7.454-2.108 3.413 0 5.898.678 7.454 2.033s2.334 3.062 2.334 5.12Z" fill="#000"/><path d="M112.582 58H86.606L78.248.025h23.115l.904 37.872h.677L107.311.025h17.769l4.292 37.947h.677l.979-37.947h23.115L146.388 58h-25.901l-3.614-15.284h-.677L112.582 58Z" fill="#10BB3B"/><path d="M216.49 58h-31.999L171.992.025h25.148l3.011 38.55h.678l2.936-38.55h25.148L216.49 58Z" fill="#1B86F2"/></svg>